<svg xmlns="http://www.w3.org/2000/svg" width="130" height="127.417" viewBox="0 0 130 127.417">
  <g id="cloud-storm-svgrepo-com" transform="translate(1)">
    <path id="Path_1" data-name="Path 1" d="M126,69.006a36.13,36.13,0,0,1-15.5,29.772M78.762,35.052a35.064,35.064,0,0,1,23.4-.078M33.72,51.512A26.258,26.258,0,0,0,28.571,51,26.79,26.79,0,0,0,2,78.007a27.121,27.121,0,0,0,9.592,20.771M33.72,51.512A36.452,36.452,0,0,1,31.524,39c0-19.884,15.862-36,35.429-36a35.647,35.647,0,0,1,35.209,31.974M33.72,51.512a26.191,26.191,0,0,1,9.613,4.04m58.828-20.578A35.248,35.248,0,0,1,113.6,41.645" fill="none" stroke="#fff" stroke-linecap="round" stroke-width="6"/>
    <path id="Path_2" data-name="Path 2" d="M26.19,19,15,30.19" transform="translate(68.474 85.247)" fill="none" stroke="#fff" stroke-linecap="round" stroke-width="6"/>
    <path id="Path_3" data-name="Path 3" d="M24.19,15.5,13,26.69" transform="translate(57.939 65.87)" fill="none" stroke="#fff" stroke-linecap="round" stroke-width="6"/>
    <path id="Path_4" data-name="Path 4" d="M22.19,20,11,31.19" transform="translate(47.405 89.842)" fill="none" stroke="#fff" stroke-linecap="round" stroke-width="6"/>
    <path id="Path_5" data-name="Path 5" d="M6,56.32,29.979,35.661H6L29.979,15" transform="translate(21.46 66.867)" fill="none" stroke="#fff" stroke-linecap="round" stroke-linejoin="round" stroke-width="6"/>
  </g>
</svg>
